<svg width="18" height="18" viewBox="0 0 18 18" fill="none" xmlns="http://www.w3.org/2000/svg">
<path d="M12.5001 11.5H11.7101L11.4301 11.23C12.6301 9.83002 13.2501 7.92002 12.9101 5.89002C12.4401 3.11002 10.1201 0.890015 7.32014 0.550015C3.09014 0.0300153 -0.469863 3.59001 0.0501373 7.82001C0.390137 10.62 2.61014 12.94 5.39014 13.41C7.42014 13.75 9.33014 13.13 10.7301 11.93L11.0001 12.21V13L15.2501 17.25C15.6601 17.66 16.3301 17.66 16.7401 17.25C17.1501 16.84 17.1501 16.17 16.7401 15.76L12.5001 11.5ZM6.50014 11.5C4.01014 11.5 2.00014 9.49002 2.00014 7.00002C2.00014 4.51002 4.01014 2.50002 6.50014 2.50002C8.99014 2.50002 11.0001 4.51002 11.0001 7.00002C11.0001 9.49002 8.99014 11.5 6.50014 11.5Z" fill="#A2A2A2"/>
</svg>
